<svg width="92" height="37" viewBox="0 0 92 37" fill="none" xmlns="http://www.w3.org/2000/svg">
<path d="M0.406681 12.0134C0.406681 11.7861 0.453478 11.5722 0.547071 11.3716C0.654035 11.1577 0.781054 10.9906 0.928129 10.8702C1.27576 10.6429 1.63676 10.5293 2.01114 10.5293H5.03954C5.29358 10.5293 5.49414 10.5761 5.64121 10.6697C5.78829 10.7633 5.90862 10.8836 6.00222 11.0307C6.10918 11.1778 6.19609 11.3449 6.26294 11.5321C6.34316 11.7193 6.43676 11.9064 6.54372 12.0936C6.57046 12.1471 6.62394 12.2808 6.70416 12.4947C6.78439 12.6953 6.8713 12.9226 6.96489 13.1766C7.05848 13.4173 7.14539 13.6513 7.22561 13.8786C7.3192 14.0925 7.37937 14.2329 7.40611 14.2998C7.80723 13.8585 8.18828 13.3973 8.54929 12.9159C8.92366 12.4212 9.31809 11.9666 9.73257 11.5521C10.1471 11.1376 10.6083 10.7967 11.1164 10.5293C11.6245 10.2619 12.2262 10.1282 12.9214 10.1282C13.6434 10.1282 14.2852 10.1817 14.8468 10.2886C15.4217 10.3956 15.9632 10.556 16.4713 10.77C16.9794 10.9705 17.4807 11.2312 17.9755 11.5521C18.4835 11.873 19.0317 12.2474 19.62 12.6752C20.5426 13.17 20.7164 13.9053 20.1415 14.8814L18.3164 17.99C18.049 18.3911 17.7214 18.6385 17.3337 18.7321C16.9459 18.8257 16.5248 18.7655 16.0702 18.5516C15.4952 17.99 14.9069 17.5755 14.3053 17.3081C13.717 17.0273 13.0418 16.8869 12.2796 16.8869C11.7582 16.8869 11.2969 16.9605 10.8958 17.1076C10.5081 17.2546 10.1537 17.4619 9.83285 17.7293C9.51196 17.9967 9.21112 18.3176 8.93034 18.6919C8.64957 19.0663 8.36879 19.4808 8.08801 19.9354V34.4557C8.08801 34.9638 7.96099 35.3515 7.70695 35.6189C7.46628 35.873 7.05848 36 6.48355 36H1.97102C0.928129 36 0.406681 35.4852 0.406681 34.4557V12.0134ZM25.0629 12.0936C25.0629 11.6658 25.1833 11.2981 25.4239 10.9906C25.6646 10.683 26.039 10.5293 26.5471 10.5293H31.1398C31.3003 10.5293 31.4741 10.5694 31.6613 10.6496C31.8484 10.7165 32.0223 10.8234 32.1827 10.9705C32.3432 11.1042 32.4769 11.2647 32.5838 11.4518C32.7042 11.639 32.7643 11.853 32.7643 12.0936V34.4557C32.7643 34.9638 32.6239 35.3515 32.3432 35.6189C32.0624 35.873 31.6613 36 31.1398 36H26.5471C25.5576 36 25.0629 35.4852 25.0629 34.4557V12.0936ZM25.0629 1.94546C25.0629 1.3839 25.1833 0.98947 25.4239 0.762173C25.6646 0.521505 26.039 0.401171 26.5471 0.401171H31.2C31.6679 0.401171 32.0423 0.521505 32.3231 0.762173C32.6172 0.98947 32.7643 1.3839 32.7643 1.94546V5.85632C32.7643 6.01676 32.7242 6.19058 32.644 6.37776C32.5771 6.56495 32.4769 6.74545 32.3432 6.91927C32.2094 7.09308 32.0423 7.24016 31.8418 7.36049C31.6546 7.46745 31.4406 7.52094 31.2 7.52094H26.5471C25.5576 7.52094 25.0629 6.96606 25.0629 5.85632V1.94546ZM37.4783 12.5148C37.2109 11.9666 37.1575 11.4986 37.3179 11.1109C37.4917 10.7232 37.8928 10.5293 38.5212 10.5293H43.6555C44.0031 10.5293 44.304 10.6229 44.558 10.8101C44.8254 10.9973 45.0126 11.2647 45.1196 11.6123C45.3469 12.3209 45.5942 13.1165 45.8616 13.9989C46.1424 14.8814 46.4299 15.7906 46.724 16.7265C47.0315 17.6491 47.3324 18.5716 47.6265 19.4942C47.9207 20.4034 48.1881 21.2457 48.4287 22.0212C48.6828 22.7833 48.9034 23.4518 49.0906 24.0268C49.2911 24.5883 49.4382 24.9894 49.5318 25.2301L53.7836 11.6123C53.9574 11.1844 54.1513 10.897 54.3652 10.7499C54.5925 10.6028 54.9067 10.5293 55.3078 10.5293H60.5825C60.9702 10.5293 61.2644 10.5761 61.4649 10.6697C61.6655 10.7633 61.7992 10.8903 61.8661 11.0507C61.9329 11.2112 61.9463 11.3984 61.9062 11.6123C61.8661 11.8129 61.7992 12.0268 61.7056 12.2541L52.1591 35.1376C52.012 35.3783 51.8382 35.5855 51.6377 35.7593C51.4371 35.9198 51.1363 36 50.7351 36H48.3485C47.8137 36 47.4326 35.9265 47.2054 35.7794C46.9914 35.6189 46.831 35.405 46.724 35.1376L37.4783 12.5148ZM91.169 34.5159C91.169 34.7432 91.1289 34.9638 91.0486 35.1777C90.9684 35.3783 90.8347 35.5387 90.6475 35.6591C90.5004 35.8061 90.3266 35.8997 90.1261 35.9398C89.9255 35.9799 89.7517 36 89.6046 36H85.6537C85.3729 36 85.1456 35.9666 84.9718 35.8997C84.7979 35.8195 84.6576 35.7125 84.5506 35.5788C84.4436 35.4451 84.35 35.2847 84.2698 35.0975C84.203 34.8969 84.1294 34.683 84.0492 34.4557L83.4676 32.9515C83.1066 33.3125 82.7122 33.7003 82.2843 34.1148C81.8564 34.5159 81.3818 34.8903 80.8603 35.2379C80.3523 35.5855 79.7974 35.873 79.1957 36.1003C78.5941 36.3409 77.9523 36.4613 77.2704 36.4613C76.0537 36.4613 74.8838 36.3075 73.7606 36C72.6509 35.6925 71.608 35.2579 70.632 34.6964C69.6693 34.1215 68.7935 33.4396 68.0047 32.6507C67.2158 31.8485 66.5339 30.9593 65.959 29.9833C65.3974 29.0073 64.9629 27.9577 64.6554 26.8346C64.3478 25.6981 64.1941 24.5148 64.1941 23.2847C64.1941 21.4262 64.535 19.7014 65.2169 18.1103C65.8988 16.5059 66.8281 15.1154 68.0047 13.9388C69.1813 12.7488 70.5651 11.8195 72.1562 11.151C73.7473 10.4691 75.452 10.1282 77.2704 10.1282C78.0994 10.1282 78.8615 10.2552 79.5567 10.5092C80.252 10.7499 80.8804 11.0708 81.442 11.4719C82.0169 11.873 82.5317 12.3276 82.9863 12.8357C83.4542 13.3438 83.8687 13.8585 84.2297 14.38L85.0119 11.9532C85.1456 11.619 85.2525 11.3516 85.3328 11.151C85.4264 10.9371 85.52 10.7833 85.6135 10.6897C85.7205 10.5828 85.8475 10.5159 85.9946 10.4892C86.1417 10.4491 86.3489 10.429 86.6163 10.429H89.6046C89.7517 10.429 89.9255 10.4491 90.1261 10.4892C90.3266 10.5293 90.5004 10.6229 90.6475 10.77C90.8347 10.917 90.9684 11.0842 91.0486 11.2713C91.1289 11.4585 91.169 11.6725 91.169 11.9131V34.5159ZM71.4141 23.2847C71.4141 24.1672 71.5478 24.9961 71.8152 25.7716C72.096 26.5337 72.4904 27.1956 72.9985 27.7571C73.5066 28.3187 74.115 28.7666 74.8236 29.1008C75.5456 29.4217 76.3411 29.5822 77.2102 29.5822C78.106 29.5822 78.935 29.4217 79.6971 29.1008C80.4726 28.7666 81.1411 28.3187 81.7027 27.7571C82.2776 27.1956 82.7255 26.5337 83.0464 25.7716C83.3673 24.9961 83.5278 24.1672 83.5278 23.2847C83.5278 22.429 83.3673 21.6134 83.0464 20.8379C82.7255 20.0624 82.2776 19.3805 81.7027 18.7922C81.1411 18.2039 80.4726 17.7426 79.6971 17.4084C78.935 17.0608 78.106 16.8869 77.2102 16.8869C76.3411 16.8869 75.5456 17.0608 74.8236 17.4084C74.115 17.7426 73.5066 18.2039 72.9985 18.7922C72.4904 19.3805 72.096 20.0624 71.8152 20.8379C71.5478 21.6134 71.4141 22.429 71.4141 23.2847Z" fill="#3A49C0"/>
</svg>
